<svg width="90" height="90" viewBox="0 0 90 90" fill="none" xmlns="http://www.w3.org/2000/svg">
<path d="M86.25 44.529L77.1 34.2198L78.375 20.5731L64.8375 17.5323L57.75 5.73979L45 11.154L32.25 5.73979L25.1625 17.5323L11.625 20.536L12.9 34.1827L3.75 44.529L12.9 54.8381L11.625 68.5219L25.1625 71.5627L32.25 83.3552L45 77.904L57.75 83.3181L64.8375 71.5256L78.375 68.4848L77.1 54.8381L86.25 44.529ZM37.5 63.0706L67.5 33.404L52.5 48.2373L37.5 63.0706Z" fill="#F04438"/>
<path d="M58.2087 34.2858L55.4474 31.5833L44.5003 42.2975L33.5532 31.5833L30.792 34.2858L41.7391 45L30.792 55.7142L33.5532 58.4167L44.5003 47.7025L55.4474 58.4167L58.2087 55.7142L47.2616 45L58.2087 34.2858Z" fill="#ECECEC"/>
</svg>
