<svg width="20" height="21" viewBox="0 0 20 21" fill="none" xmlns="http://www.w3.org/2000/svg">
<path d="M13.0083 13.8956H15.866C17.5274 13.8956 18.8742 12.5488 18.8742 10.8874C18.8742 9.22599 17.6778 7.87927 16.0165 7.87927C16.0165 6.21782 14.6696 4.87109 13.0083 4.87109C12.6501 4.87109 12.3112 4.94434 11.9926 5.05929C11.1653 4.03516 9.91501 3.367 8.49601 3.367C6.00396 3.367 3.98375 5.38722 3.98375 7.87927C2.3224 7.87927 1.12598 9.22599 1.12598 10.8874C1.12598 12.5488 2.47281 13.8956 4.13415 13.8956H6.99192" stroke="#010101" stroke-miterlimit="10" stroke-linecap="round" stroke-linejoin="round"/>
<path d="M13.0083 13.8956H15.866C17.5274 13.8956 18.8742 12.5488 18.8742 10.8874C18.8742 9.22599 17.6778 7.87927 16.0165 7.87927C16.0165 6.21782 14.6696 4.87109 13.0083 4.87109C12.6501 4.87109 12.3112 4.94434 11.9926 5.05929C11.1653 4.03516 9.91501 3.367 8.49601 3.367C6.00396 3.367 3.98375 5.38722 3.98375 7.87927C2.3224 7.87927 1.12598 9.22599 1.12598 10.8874C1.12598 12.5488 2.47281 13.8956 4.13415 13.8956H6.99192M10.0001 18.3972V9.38355" stroke="#010101" stroke-miterlimit="10" stroke-linecap="round" stroke-linejoin="round"/>
<path d="M7.74414 11.328L9.4685 9.60362C9.76218 9.30994 10.2384 9.30994 10.532 9.60362L12.2564 11.328" stroke="#010101" stroke-miterlimit="10" stroke-linecap="round" stroke-linejoin="round"/>
</svg>
