<svg width="17" height="17" viewBox="0 0 17 17" fill="none" xmlns="http://www.w3.org/2000/svg">
<path d="M14.9136 4.1628C12.6936 3.9428 10.4602 3.82947 8.23357 3.82947C6.91357 3.82947 5.59357 3.89613 4.27357 4.02947L2.91357 4.1628" stroke="#010101" stroke-linecap="round" stroke-linejoin="round"/>
<path d="M6.58032 3.48952L6.72699 2.61619C6.83366 1.98285 6.91366 1.50952 8.04032 1.50952H9.78699C10.9137 1.50952 11.0003 2.00952 11.1003 2.62285L11.247 3.48952" stroke="#010101" stroke-linecap="round" stroke-linejoin="round"/>
<path d="M13.4803 6.26953L13.0469 12.9829C12.9736 14.0295 12.9136 14.8429 11.0536 14.8429H6.77359C4.91359 14.8429 4.85359 14.0295 4.78026 12.9829L4.34692 6.26953" stroke="#010101" stroke-linecap="round" stroke-linejoin="round"/>
<path d="M7.80029 11.1761H10.0203" stroke="#010101" stroke-linecap="round" stroke-linejoin="round"/>
<path d="M7.24683 8.50952H10.5802" stroke="#010101" stroke-linecap="round" stroke-linejoin="round"/>
</svg>
