<svg width="444" height="607" viewBox="0 0 444 607" fill="none" xmlns="http://www.w3.org/2000/svg">
<g clip-path="url(#clip0_488_47221)">
<path d="M303.474 265.509C298.551 265.651 293.496 265.774 288.882 264.06C282.431 261.665 277.517 255.558 276.553 248.753C275.59 241.947 278.621 234.709 284.154 230.626C289.846 226.419 297.331 225.677 304.41 225.659C311.49 225.641 318.728 226.189 325.471 224.06C342.272 218.739 350.5 198.889 366.532 191.589C375.935 187.303 387.469 188.081 396.209 193.595C404.95 199.11 410.624 209.185 410.81 219.517C410.889 224.192 409.961 229.079 411.738 233.401C413.267 237.131 416.572 239.809 418.879 243.114C423.138 249.203 423.695 258.094 420.284 264.731C417.093 270.944 408.096 273.357 401.777 271.298C398.481 270.229 395.467 268.099 392.011 267.887C387.363 267.604 383.341 270.803 379.197 272.924C371.295 276.981 361.547 277.237 353.434 273.613C349.758 271.97 346.461 269.61 342.908 267.727C337.128 264.67 331.507 264.705 325.144 264.89C317.924 265.103 310.703 265.306 303.482 265.518L303.474 265.509Z" fill="#80CD29"/>
<path d="M157.684 285.315C164.092 284.378 170.402 282.487 176.871 282.54C183.341 282.593 190.322 285.059 193.513 290.697C197.304 297.396 194.255 306.34 188.502 311.457C182.74 316.566 174.971 318.678 167.424 320.242C147.176 324.44 126.239 325.845 105.77 322.955C99.9728 322.142 94.0603 320.914 89.1906 317.67C84.321 314.427 80.6886 308.726 81.431 302.92C81.9436 298.881 84.48 295.31 87.6793 292.8C90.8787 290.291 94.7231 288.744 98.5853 287.462C108.943 284.024 119.867 282.345 130.782 282.469C140.132 282.575 148.157 286.711 157.684 285.315Z" fill="#80CD29"/>
<path d="M114.502 230.281C114.502 230.281 81.422 242.204 65.1603 240.807C53.185 239.782 36.8791 238.704 26.0439 218.545C19.1592 205.721 -0.664168 203.582 0.475918 189.061C1.5453 175.469 10.4009 158.376 38.3816 154.762C38.3816 154.762 43.1894 143.122 55.9513 139.817C68.7132 136.511 83.1101 137.139 94.0248 144.527C91.9126 139.428 96.5878 132.906 102.094 133.259C80.9448 125.924 66.5125 103.944 65.7967 81.5752C65.0808 59.2065 76.9501 37.377 94.67 23.7136C112.408 10.0502 135.36 4.11119 157.728 4.78286C181.246 5.48106 204.534 13.0551 227.919 10.4833C244.242 8.68921 259.806 1.9901 276.2 0.938388C299.17 -0.537537 315.997 3.17437 336.987 12.6132C359.188 22.5912 352.4 27.452 374.592 37.4388C385.684 42.4234 440.275 45.6669 442.44 69.9357C444.111 88.7515 444.562 106.144 432.816 120.93C421.07 135.716 385.728 164.483 334.088 145.88C327.309 143.44 315.555 131.986 315.555 131.986C315.325 134.381 313.743 148.566 301.335 157.784C293.001 163.98 281.335 158.253 279.072 155.681C309.757 190.582 286.284 214.232 268.847 219.543C258.904 222.566 243.898 227.382 233.646 228.797C221.9 230.423 218.577 233.481 207.247 232.862C194.945 232.181 186.699 237.422 176.111 240.083C170.994 241.364 151.171 245.739 132.558 238.43C127.149 236.3 114.502 230.308 114.502 230.308V230.281Z" fill="#80CD29"/>
<path d="M216.332 450.097C219.461 399.014 201.644 337.105 163.42 310.653C157.993 306.897 161.944 298.28 168.325 299.95C169.164 300.171 169.969 300.481 170.693 300.896C175.554 303.627 179.231 308.037 183.994 310.927C198.877 319.959 212.991 307.966 208.369 292.412C203.181 263.079 217.278 253.985 204.304 238.934C191.33 223.883 168.855 209.822 148.528 203.83C134.202 199.605 110.949 187.612 106.141 178.385C104.427 175.098 107.891 171.518 111.241 173.1C117.525 176.061 127.273 180.144 135.572 183.458C141.696 185.906 146.23 182.539 145.647 175.973L144.507 162.442C144.259 152.163 153.884 150.59 156.561 161.92C156.57 161.973 156.447 166.905 156.464 166.958C158.258 172.331 157.569 179.508 161.431 183.653C176.774 200.127 187.927 201.284 218.524 222.46C247.857 186.808 250.261 136.724 276.969 121.142C279.328 119.764 273.292 108.054 273.796 100.329C273.893 98.8268 274.998 97.5895 276.456 97.2359L276.536 97.2183C278.392 96.7764 280.265 97.8811 280.76 99.7282L285.321 116.635C296.156 109.644 305.179 105.579 316.651 103.749C320.318 103.166 320.973 109.185 317.429 110.298C300.76 115.548 279.912 120.241 271.109 146.869C266.204 161.717 259.479 171.907 257.349 187.259C252.779 220.153 239.293 217.944 230.499 269.619C228.599 280.799 231.71 304.475 232.983 314.524C234.246 324.573 232.505 325.483 242.006 328.965C248.776 331.449 263.27 322.46 274.273 314.745C287.203 305.686 298.312 301.462 309.554 291.13C312.073 288.815 316.686 285.81 319.832 284.475C340.893 275.575 330.456 254.294 329.298 242.787C329.192 241.718 329.439 240.772 329.925 240.003C331.896 236.866 336.801 238.147 337.278 241.815L338.171 248.602C338.94 254.426 345.135 257.847 350.473 255.372L370.845 241.682C375.449 238.589 381.812 245.315 377.438 248.726C348.299 271.422 332.497 290.37 311.065 307.524C306.664 311.042 297.888 316.981 295.723 322.646C294.583 325.633 301.998 327.021 305.197 326.932C312.029 326.747 317.34 325.156 321.909 322.125C324.835 320.18 328.626 322.867 327.901 326.305C327.442 328.488 323.491 331.811 321.671 333.481C317.508 337.299 310.296 341.002 304.976 339.12C294.936 335.567 280.513 337.697 274.963 336.636C270.225 335.735 267.008 345.784 262.13 358.271C257.251 370.759 251.268 387.065 254.653 400.039C283.314 509.929 222.607 525.272 255.104 597.707C257.711 603.531 241.502 599.917 235.475 601.994C222.386 606.51 216.818 609.762 204.79 607.181C197.233 605.564 171.842 596.576 164.622 597.477C162.775 597.707 174.467 569.665 177.931 562.957C189.739 540.102 194.626 516.019 205.461 490.071C210.959 476.902 215.484 464.344 216.35 450.088L216.332 450.097Z" fill="#C59CA0"/>
</g>
<path d="M184.589 608.095C184.589 608.095 110.064 559.104 90.7403 511.026L103.948 505.808L84.2834 497.57L72.9028 469.204L90.7867 467.501L74.6679 463.15C74.6679 463.15 69.9918 440.481 70.0847 423.046C70.0847 423.046 96.1287 427.289 114.926 442.633L106.023 455.067L119.989 449.137L142.364 481.111L131.2 493.591L150.23 493.142L166.968 522.67L154.364 532.843L177.497 529.7C177.497 529.7 196.31 569.462 184.573 608.079L184.589 608.095Z" fill="#88CD7C"/>
<path d="M177.59 593.184C177.59 593.184 163.825 558.794 148.774 541.22C133.724 523.661 106.72 491.268 98.5132 466.99C90.3067 442.711 81.9764 438.189 81.9764 438.189" stroke="#223131" stroke-width="0.79" stroke-linecap="round" stroke-linejoin="round"/>
<path d="M150.416 569.137L171.273 578.861L175.964 561.829" stroke="#223131" stroke-width="0.79" stroke-linecap="round" stroke-linejoin="round"/>
<path d="M125.409 544.518L159.722 556.905L164.8 540.957" stroke="#223131" stroke-width="0.79" stroke-linecap="round" stroke-linejoin="round"/>
<path d="M111.133 519.449L140.103 530.118L143.727 510.887" stroke="#223131" stroke-width="0.79" stroke-linecap="round" stroke-linejoin="round"/>
<path d="M102.307 496.688L120.919 506.396L122.777 488.729" stroke="#223131" stroke-width="0.79" stroke-linecap="round" stroke-linejoin="round"/>
<path d="M89.1299 477.797L107.618 486.205L115.298 467.47" stroke="#223131" stroke-width="0.79" stroke-linecap="round" stroke-linejoin="round"/>
<path d="M81.6978 454.479L96.4849 461.369L98.312 441.023" stroke="#223131" stroke-width="0.79" stroke-linecap="round" stroke-linejoin="round"/>
<path d="M178.039 603.496C178.039 603.496 119.432 599.424 92.8153 578.072L98.7147 570.81L84.7636 572.435L69.0629 559.816L78.7713 553.065L68.1183 555.775C68.1183 555.775 58.1158 544.27 52.5261 534.221C52.5261 534.221 68.8461 528.244 84.5933 530.985L83.494 541.003L89.5947 533.091L112.774 544.224L110.39 554.985L121.166 548.59L140.32 560.141L136.372 570.051L148.635 560.776C148.635 560.776 172.279 577.53 178.008 603.496H178.039Z" fill="#80CC28"/>
<path d="M169.213 597.194C169.213 597.194 150.199 581.896 135.892 576.663C121.585 571.444 95.6181 561.566 83.0606 550.278C70.5186 538.99 64.2631 539.083 64.2631 539.083" stroke="#223131" stroke-width="0.79" stroke-linecap="round" stroke-linejoin="round"/>
<path d="M145.832 592.162L160.96 591.016L158.142 579.713" stroke="#223131" stroke-width="0.79" stroke-linecap="round" stroke-linejoin="round"/>
<path d="M123.536 586.092L147.226 582.128L144.996 571.336" stroke="#223131" stroke-width="0.79" stroke-linecap="round" stroke-linejoin="round"/>
<path d="M107.246 576.322L127.329 573.086L123.179 560.869" stroke="#223131" stroke-width="0.79" stroke-linecap="round" stroke-linejoin="round"/>
<path d="M94.8279 566.103L108.64 565.669L104.01 554.923" stroke="#223131" stroke-width="0.79" stroke-linecap="round" stroke-linejoin="round"/>
<path d="M81.1556 559.506L94.4873 558.36L92.846 545.122" stroke="#223131" stroke-width="0.79" stroke-linecap="round" stroke-linejoin="round"/>
<path d="M69.3569 548.528L80.0718 547.707L74.5595 535.429" stroke="#223131" stroke-width="0.79" stroke-linecap="round" stroke-linejoin="round"/>
<defs>
<clipPath id="clip0_488_47221">
<rect width="442.893" height="607.48" fill="white" transform="translate(0.431641 0.620239)"/>
</clipPath>
</defs>
</svg>
