<svg width="1728" height="494" viewBox="0 0 1728 494" fill="none" xmlns="http://www.w3.org/2000/svg">
<path d="M1685.29 220.154C1764.75 285.331 1775.36 370.47 1761.1 446.296C1752.03 494.558 1729.32 546.676 1666.37 573.846C1619.06 594.26 1558.7 596.255 1501.68 597.327C1315.48 600.846 1129.2 601.523 942.948 602.201C833.987 602.596 725.025 603.01 616.064 601.448C560.25 600.639 504.435 599.359 448.677 597.271C398.955 595.408 361.39 601.448 313.971 602.916C231.793 605.456 152.003 603.819 72.5769 591.683C5.19556 581.391 -19.7356 543.177 -36.3844 509.685C-62.7473 456.626 -71.0577 401.121 -60.8102 346.556C-55.1951 316.715 -42.0839 285.124 -0.896973 264.258C36.2469 245.442 92.1176 238.575 143.075 243.26C165.676 245.348 188.192 249.525 210.99 248.114C265.512 244.727 293.476 213.212 313.606 186.513C348.307 140.49 390.589 94.957 455.949 59.189C521.309 23.4022 613.116 -1.75396 707.59 1.10597C808.382 4.15406 896.567 37.7583 966.363 75.8971C997.92 93.1508 1028.16 112.023 1068.98 122.691C1152 144.366 1250.68 126.341 1343.45 124.968C1437.56 123.575 1532.28 140.678 1604.66 172.175C1637.17 186.324 1663.73 202.506 1685.27 220.173L1685.29 220.154Z" fill="#FFE7CF"/>
<path d="M1915.03 491.908L-361.146 488.773C-361.146 488.773 832.842 398.314 1915.03 491.908Z" fill="#80CC28"/>
</svg>
