<svg width="456" height="460" viewBox="0 0 456 460" fill="none" xmlns="http://www.w3.org/2000/svg">
<path d="M139.38 40.5586C138.296 40.5586 137.228 40.667 136.175 40.8219C135.602 26.9947 124.237 15.9546 110.27 15.9546C105.485 15.9546 101.026 17.2708 97.1706 19.5314C93.3151 8.25911 82.6621 0.145508 70.0891 0.145508C55.3639 0.145508 43.2399 11.263 41.6451 25.5702C40.3135 25.3844 38.9818 25.2605 37.6038 25.2605C21.1753 25.2605 7.87456 38.5767 7.87456 54.9897C7.87456 71.4027 20.7727 84.2698 36.845 84.6879V84.7189H138.931C139.086 84.7034 139.225 84.7189 139.38 84.7189C151.566 84.7189 161.46 74.8401 161.46 62.6388C161.46 50.4374 151.581 40.5586 139.38 40.5586Z" fill="white"/>
<path d="M104.835 133.679H104.804L110.595 122.314C110.889 121.741 111.71 121.741 112.004 122.314L117.811 133.679H117.78C118.275 134.67 118.585 135.77 118.585 136.946C118.585 140.972 115.333 144.224 111.307 144.224C107.281 144.224 104.03 140.972 104.03 136.946C104.03 135.754 104.339 134.655 104.85 133.664L104.835 133.679Z" fill="#77BABF"/>
<path d="M102.714 96.6725H102.683L108.474 85.3072C108.768 84.7343 109.589 84.7343 109.883 85.3072L115.689 96.6725H115.658C116.154 97.6634 116.464 98.7628 116.464 99.9396C116.464 103.965 113.212 107.217 109.186 107.217C105.16 107.217 101.909 103.965 101.909 99.9396C101.909 98.7473 102.218 97.648 102.729 96.657L102.714 96.6725Z" fill="#77BABF"/>
<path d="M128.913 110.515H128.882L134.673 99.1499C134.967 98.577 135.787 98.577 136.082 99.1499L141.888 110.515H141.857C142.353 111.506 142.662 112.605 142.662 113.782C142.662 117.808 139.411 121.06 135.385 121.06C131.359 121.06 128.107 117.808 128.107 113.782C128.107 112.59 128.417 111.491 128.928 110.5L128.913 110.515Z" fill="#77BABF"/>
<path d="M50.7185 96.6725H50.6875L56.4785 85.3072C56.7727 84.7343 57.5934 84.7343 57.8876 85.3072L63.6941 96.6725H63.6631C64.1586 97.6634 64.4683 98.7628 64.4683 99.9396C64.4683 103.965 61.2166 107.217 57.1908 107.217C53.165 107.217 49.9133 103.965 49.9133 99.9396C49.9133 98.7473 50.223 97.648 50.7339 96.657L50.7185 96.6725Z" fill="#77BABF"/>
<path d="M43.4412 124.544H43.4102L49.2012 113.178C49.4954 112.605 50.316 112.605 50.6102 113.178L56.4167 124.544H56.3858C56.8813 125.535 57.1909 126.634 57.1909 127.811C57.1909 131.837 53.9393 135.088 49.9134 135.088C45.8876 135.088 42.636 131.837 42.636 127.811C42.636 126.618 42.9457 125.519 43.4567 124.528L43.4412 124.544Z" fill="#77BABF"/>
<path d="M20.3545 108.967H20.3235L26.1145 97.6016C26.4087 97.0286 27.2294 97.0286 27.5236 97.6016L33.33 108.967H33.2991C33.7946 109.958 34.1042 111.057 34.1042 112.234C34.1042 116.26 30.8526 119.511 26.8268 119.511C22.8009 119.511 19.5493 116.26 19.5493 112.234C19.5493 111.042 19.859 109.942 20.37 108.951L20.3545 108.967Z" fill="#77BABF"/>
<path d="M50.7185 152.554H50.6875L56.4785 141.189C56.7727 140.616 57.5934 140.616 57.8876 141.189L63.6941 152.554H63.6631C64.1586 153.545 64.4683 154.644 64.4683 155.821C64.4683 159.847 61.2166 163.099 57.1908 163.099C53.165 163.099 49.9133 159.847 49.9133 155.821C49.9133 154.629 50.223 153.53 50.7339 152.539L50.7185 152.554Z" fill="#77BABF"/>
<path d="M413.149 214.313C412.266 214.313 411.399 214.406 410.548 214.53C410.083 203.304 400.855 194.354 389.52 194.354C385.634 194.354 382.011 195.423 378.898 197.25C375.771 188.099 367.131 181.518 356.927 181.518C344.973 181.518 335.141 190.545 333.84 202.143C332.772 202.003 331.672 201.895 330.557 201.895C317.226 201.895 306.433 212.703 306.433 226.019C306.433 239.335 316.901 249.787 329.938 250.112V250.143H412.762C412.886 250.127 413.01 250.143 413.133 250.143C423.028 250.143 431.048 242.122 431.048 232.228C431.048 222.334 423.028 214.313 413.133 214.313H413.149Z" fill="white"/>
<path d="M49.4698 324.941C49.4698 324.941 56.4995 311.966 73.5319 309.07C88.2416 306.562 113.899 279.418 86.91 261.813C59.9214 244.223 51.7459 270.19 51.7459 270.19C51.7459 270.19 40.6903 244.688 13.036 259.196C-14.6184 273.705 8.40633 306.949 23.8438 308.606C39.2813 310.278 49.4698 324.941 49.4698 324.941Z" fill="#C59CA0"/>
<path d="M51.4517 382.479C51.4517 382.479 54.7189 367.801 73.5319 366.531C87.7617 365.571 107.38 345.968 92.6236 323.439C81.9087 307.986 64.4427 310.309 49.4233 320.838C49.4233 320.838 36.8813 307.645 14.8786 320.637C-7.12411 333.612 14.2283 360.244 21.5677 361.545C28.9071 362.846 50.662 371.346 51.4672 382.479H51.4517Z" fill="#C59CA0"/>
<path d="M51.7459 435.048C51.7459 435.048 61.4389 423.729 76.3654 423.14C91.3075 422.552 112.706 405.086 99.8546 380.296C87.0184 355.506 51.8543 376.998 50.6466 392.498C50.6466 392.498 45.6298 368.265 19.4774 374.01C-6.67503 379.754 5.52636 414.5 21.5368 419.006C37.5472 423.512 51.6376 431.146 51.7305 435.048H51.7459Z" fill="#C59CA0"/>
<path d="M50.6621 292.146L56.4995 455.874H44.8401L47.8595 292.146H50.6621Z" fill="#223131"/>
<path d="M86.9099 275.176L49.191 298.525L16.5818 269.478" stroke="#223131" stroke-width="0.79" stroke-linecap="round" stroke-linejoin="round"/>
<path d="M76.3808 267.62L75.3279 282.345L86.9099 286.138" stroke="#223131" stroke-width="0.79" stroke-linecap="round" stroke-linejoin="round"/>
<path d="M65.4182 270.19L66.4092 287.857" stroke="#223131" stroke-width="0.79" stroke-linecap="round" stroke-linejoin="round"/>
<path d="M73.532 296.389L58.5435 292.734L59.1474 282.856" stroke="#223131" stroke-width="0.79" stroke-linecap="round" stroke-linejoin="round"/>
<path d="M40.3499 279.031V290.66" stroke="#223131" stroke-width="0.79" stroke-linecap="round" stroke-linejoin="round"/>
<path d="M31.1057 265.638V282.407L16.5817 286.138" stroke="#223131" stroke-width="0.79" stroke-linecap="round" stroke-linejoin="round"/>
<path d="M23.844 267.62V275.95H14.8787" stroke="#223131" stroke-width="0.79" stroke-linecap="round" stroke-linejoin="round"/>
<path d="M44.8401 295.537H31.1058" stroke="#223131" stroke-width="0.79" stroke-linecap="round" stroke-linejoin="round"/>
<path d="M89.9294 331.862L48.0918 354.903L19.4929 329.029" stroke="#223131" stroke-width="0.79" stroke-linecap="round" stroke-linejoin="round"/>
<path d="M88.6907 340.673L77.4184 338.753V325.979" stroke="#223131" stroke-width="0.79" stroke-linecap="round" stroke-linejoin="round"/>
<path d="M67.3538 330.686V344.296" stroke="#223131" stroke-width="0.79" stroke-linecap="round" stroke-linejoin="round"/>
<path d="M73.532 353.277L59.519 348.616V333.333" stroke="#223131" stroke-width="0.79" stroke-linecap="round" stroke-linejoin="round"/>
<path d="M64.4583 359.223L53.6814 352.75" stroke="#223131" stroke-width="0.79" stroke-linecap="round" stroke-linejoin="round"/>
<path d="M42.9048 336.275L42.0841 348.616L23.0233 349.762" stroke="#223131" stroke-width="0.79" stroke-linecap="round" stroke-linejoin="round"/>
<path d="M31.1057 327.573V338.753L16.9533 337.483" stroke="#223131" stroke-width="0.79" stroke-linecap="round" stroke-linejoin="round"/>
<path d="M92.6235 391.445L75.3279 397.53L50.662 416.482L16.5818 383.13" stroke="#223131" stroke-width="0.79" stroke-linecap="round" stroke-linejoin="round"/>
<path d="M77.4185 382.201L75.3281 397.53" stroke="#223131" stroke-width="0.79" stroke-linecap="round" stroke-linejoin="round"/>
<path d="M85.5786 404.761L70.4663 402.175L78.9515 416.482" stroke="#223131" stroke-width="0.79" stroke-linecap="round" stroke-linejoin="round"/>
<path d="M61.1445 389.602L62.4297 407.44" stroke="#223131" stroke-width="0.79" stroke-linecap="round" stroke-linejoin="round"/>
<path d="M39.5911 393.736L38.693 404.761L25.0826 409.158" stroke="#223131" stroke-width="0.79" stroke-linecap="round" stroke-linejoin="round"/>
<path d="M25.4852 383.13L26.5381 392.869H16.5819" stroke="#1B4001" stroke-width="0.75" stroke-linecap="round" stroke-linejoin="round"/>
<path d="M98.9412 383.192C100.087 382.402 101.233 381.612 102.379 380.823C104.81 379.166 107.241 377.463 109.765 375.914C112.227 374.412 114.704 372.972 117.243 371.625C117.568 371.455 117.925 371.285 118.265 371.13C118.002 370.402 117.77 369.659 117.553 368.916C117.445 368.559 117.352 368.188 117.259 367.816C117.15 367.909 117.027 368.017 116.918 368.11C115.153 369.535 113.279 370.836 111.468 372.214C109.656 373.592 107.783 374.877 105.94 376.224C105.088 376.843 104.221 377.478 103.37 378.113C102.626 378.67 101.589 379.259 101.016 379.847C100.861 380.033 100.691 380.219 100.505 380.343C99.0497 381.272 96.9283 380.869 96.2935 379.104C96.278 379.042 96.247 378.98 96.2316 378.918C95.7516 377.571 96.2625 376.441 97.2225 375.527C98.8019 374.056 100.861 372.91 102.657 371.703C104.608 370.387 106.575 369.086 108.619 367.909C112.165 365.881 115.618 364.085 117.894 360.786C117.894 360.694 117.894 360.601 117.894 360.492C117.894 360.461 117.894 360.446 117.894 360.415C117.011 360.415 116.175 360.585 115.308 360.879C113.063 361.623 111.019 362.877 108.805 363.728C107.922 364.069 106.559 363.806 106.064 362.923C105.986 362.784 105.909 362.645 105.847 362.49C105.398 362.242 105.321 361.638 105.46 361.096C105.429 360.508 105.553 359.904 105.894 359.269C106.528 358.108 107.69 357.612 108.866 357.163C110.817 356.435 112.784 355.708 114.735 354.98C123.421 350.768 132.743 347.873 142.296 346.51C147.561 345.752 151.819 342.964 155.644 346.681C158.338 349.297 159.545 352.115 157.749 355.801C156.604 358.17 154.637 360.012 152.794 361.886C148.97 365.741 145.982 371.114 141.785 374.366C141.027 375.187 140.252 375.976 139.463 376.766C136.877 379.321 134.214 381.767 131.38 384.059C128.593 386.319 125.713 388.425 122.616 390.252C121.083 391.15 119.535 392.018 117.94 392.807C116.299 393.628 114.394 394.789 112.552 394.944C110.043 395.161 108.928 391.971 110.848 390.454C112.196 389.385 114.1 388.905 115.648 388.162C117.135 387.45 118.575 386.691 119.984 385.855C122.678 384.276 125.295 382.572 127.85 380.776C126.905 380.575 125.992 380.234 125.14 379.801C124.846 380.048 124.567 380.312 124.273 380.559C122.291 382.154 120.092 383.532 117.925 384.879C115.772 386.227 113.605 387.558 111.406 388.843C110.337 389.463 109.269 390.098 108.201 390.717C106.714 391.569 105.476 392.451 103.726 391.708C102.348 391.12 101.837 389.447 102.394 388.131C102.673 387.45 103.292 386.83 104.02 386.629C104.19 386.583 104.345 386.552 104.515 386.536C104.531 386.536 104.546 386.536 104.562 386.521C104.825 386.366 105.104 386.211 105.367 386.056C105.909 385.747 106.435 385.437 106.977 385.143C107.922 384.601 108.851 384.059 109.78 383.517C111.716 382.387 113.667 381.287 115.618 380.172C117.553 379.058 119.519 377.989 121.517 376.967C120.867 376.193 120.309 375.372 119.814 374.49C117.785 376.023 115.726 377.54 113.651 379.011C111.53 380.529 109.362 381.984 107.225 383.455C105.259 384.818 103.168 386.118 101.295 387.62C101.14 387.852 100.954 388.069 100.753 388.255C100.226 388.719 99.4213 388.89 98.74 388.735C97.7026 388.487 96.8664 387.698 96.7581 386.598C96.5877 384.88 97.7335 384.074 99.0032 383.192H98.9412Z" fill="#E09C7C"/>
<path d="M172.149 200.295C172.026 199.567 171.158 199.056 170.462 199.258C167.628 200.047 164.888 200.976 162.224 202.246C159.731 203.438 157.176 204.832 155.287 206.876C153.6 208.703 152.469 210.948 151.757 213.333C151.014 215.81 150.472 218.582 150.565 221.183C150.565 221.353 150.642 221.493 150.735 221.617C150.518 222.484 150.936 223.49 152.067 223.459C157.78 223.32 163.432 220.873 167.21 216.538C171.019 212.187 173.063 206.086 172.149 200.311V200.295Z" fill="#80CC28"/>
<path d="M114.487 203.702C113.651 204.367 112.691 203.996 112.211 203.33C112.072 203.376 111.917 203.392 111.762 203.284C109.501 201.859 108.154 198.84 107.442 196.378C106.637 193.668 106.451 190.757 106.9 187.97C107.891 181.792 111.545 176.388 116.376 172.532C116.856 172.145 117.692 172.099 118.095 172.641C121.563 177.224 123.452 182.876 122.817 188.667C122.167 194.551 119.117 200.001 114.487 203.686V203.702Z" fill="#80CC28"/>
<path d="M142.606 216.94C142.42 213.379 141.367 209.802 139.339 206.845C138.611 205.776 137.434 203.825 136.072 203.578C134.229 203.237 133.966 205.807 133.641 207.046C132.65 210.824 131.999 214.726 132.82 218.613C133.532 222.004 135.127 224.915 136.66 227.996C139.695 234.112 141.77 225.255 142.203 222.747C142.544 220.842 142.714 218.907 142.606 216.971V216.94Z" fill="#80CC28"/>
<path d="M162.441 242.83C158.942 239.439 154.544 236.822 149.667 236.14C145.687 235.583 140.454 236.605 137.744 239.857C137.651 239.965 137.543 240.042 137.465 240.166C136.676 241.219 137.651 242.721 138.797 242.861C139.277 243.263 139.772 243.619 140.082 243.882C141.971 245.415 144.108 246.778 146.493 247.397C151.525 248.714 156.774 247.15 161.589 245.694C162.751 245.338 163.447 243.805 162.456 242.845L162.441 242.83Z" fill="#80CC28"/>
<path d="M112.769 458.335C113.744 458.273 119.287 458.506 120.232 458.366L122.508 313.498C123.298 292.579 124.103 270.948 124.831 249.673V249.317L125.094 249.07C126.534 247.599 127.958 246.05 129.336 244.548C130.498 243.278 131.644 242.024 132.82 240.786C135.654 237.828 138.503 234.871 141.368 231.944C145.455 227.779 149.977 223.196 154.699 218.814C154.606 218.891 154.529 218.969 154.436 219.031C149.806 223.026 145.022 227.144 140.5 231.402C135.592 236.017 130.838 240.553 126.549 245.322L124.908 247.15L124.985 244.688C125.187 238.757 125.373 232.811 125.527 226.881V226.695L125.605 226.54L125.558 226.386V226.231C125.558 226.231 125.636 223.056 125.651 222.251C125.744 217.978 125.744 213.642 125.744 209.446C125.744 205.405 125.744 201.24 125.837 197.136C125.837 197.074 125.837 197.012 125.698 197.012C125.558 197.012 125.558 197.059 125.558 197.121C125.233 202.881 124.862 208.641 124.49 214.385L123.886 223.985L122.446 222.205C121.718 221.307 120.96 220.409 120.216 219.526L120.046 219.325C117.94 216.801 115.943 214.478 113.976 212.233C112.211 210.22 110.276 208.083 107.876 205.498C106.823 204.352 105.754 203.222 104.686 202.091C104.454 201.843 104.221 201.565 103.974 201.286C103.246 200.434 102.487 199.567 101.651 199.32C101.651 199.32 101.62 199.32 101.605 199.32C101.434 199.32 101.311 199.366 101.249 199.459C101.171 199.552 101.187 199.645 101.202 199.691C101.419 200.527 102.193 201.255 102.936 201.952C103.184 202.2 103.447 202.432 103.68 202.68C104.702 203.748 105.723 204.832 106.73 205.9C108.867 208.176 110.957 210.499 113.047 212.822C115.076 215.082 117.089 217.358 119.086 219.665C119.628 220.3 120.17 220.935 120.696 221.57C121.641 222.7 122.601 223.831 123.592 224.93L123.84 225.209V225.58C123.53 230.21 123.22 235.676 122.988 241.204C122.384 255.929 121.811 270.654 121.238 285.364L116.949 398.134C116.825 401.556 113.249 454.201 112.769 458.273V458.335Z" fill="#010101"/>
<path d="M139.989 229.297C139.958 227.361 139.85 225.41 139.742 223.475C139.633 221.555 139.463 219.635 139.293 217.73C139.122 215.841 139.122 213.89 138.611 212.063C138.503 211.691 138.007 211.753 137.961 212.125C137.744 213.967 138.007 215.841 138.085 217.684C138.162 219.542 138.224 221.4 138.317 223.258C138.518 226.788 138.936 230.365 138.348 233.864C138.286 234.267 138.921 234.453 139.107 234.097C139.912 232.626 139.989 230.922 139.974 229.297H139.989Z" fill="#010101"/>
<path d="M155.241 241.746C153.166 241.591 151.184 241.405 149.125 241.033C147.189 240.677 145.27 240.306 143.303 240.213C139.246 240.027 135.251 241.064 131.195 241.033C130.73 241.033 130.73 241.684 131.164 241.73C133.192 241.978 135.158 241.947 137.202 241.761C139.215 241.575 141.228 241.359 143.257 241.467C145.27 241.575 147.236 241.978 149.202 242.365C151.138 242.737 153.213 243.217 155.195 243.046C156 242.984 156.093 241.823 155.241 241.746Z" fill="#010101"/>
<path d="M114.611 189.72C114.689 189.209 113.883 189.178 113.806 189.689C113.249 193.327 112.707 196.95 112.351 200.62C111.994 204.274 111.917 207.944 111.963 211.614C111.963 212.543 113.419 212.605 113.403 211.66C113.311 204.367 113.512 196.935 114.611 189.72Z" fill="#010101"/>
<path d="M441.694 285.008C447.779 292.038 461.638 326.319 448.786 332.188C398.014 319.986 379.913 330.81 318.845 336.384C294.21 332.884 277.239 307.166 260.64 280.719C253.425 269.214 247.138 255.403 246.085 241.699C245.404 232.75 247.572 223.676 254.075 217.204C260.718 210.592 270.209 207.728 279.283 206.613C291.593 205.111 304.197 206.535 316.259 209.106C331.836 212.435 347.397 217.684 361.549 225.039C374.153 231.604 384.961 240.29 395.815 249.364C402.21 254.706 409.395 261.07 417.818 262.463" fill="#1B4001"/>
<path d="M322.003 333.705C331.774 325.545 341.792 317.664 351.732 309.705C362.323 301.235 373.007 292.874 383.831 284.698C389.498 280.409 395.18 276.12 400.971 272.001C403.975 269.865 407.01 267.774 410.107 265.746C413.513 263.516 416.099 259.614 420.233 262.943C432.806 273.085 446.076 283.676 450.799 299.934C452.688 306.407 454.685 312.771 454.67 319.63C454.67 324.322 453.524 330.02 448.801 332.172C398.029 319.971 379.929 330.794 318.845 336.353C319.897 335.455 320.95 334.572 322.003 333.69V333.705Z" fill="#DD7596"/>
<path d="M283.2 448.968C283.139 449.293 283.061 449.649 282.829 449.85C282.519 450.129 282.055 450.067 281.668 449.974C273.43 448.116 266.865 446.707 258.627 444.849C261.089 433.731 262.049 422.196 264.837 411.156C264.976 410.583 265.146 409.979 265.549 409.576C265.951 409.174 266.509 409.065 267.051 408.957C270.318 408.353 273.631 407.982 276.945 407.842C280.197 407.703 283.711 407.873 286.235 410.103C290.803 414.129 289.146 419.517 287.846 424.596C285.802 432.539 284.733 440.9 283.216 448.968H283.2Z" fill="#E09C7C"/>
<path d="M156.263 382.774C152.903 377.989 149.388 373.313 145.858 368.652C139.726 359.873 136.877 356.451 132.789 346.557C132.201 345.148 153.336 329.044 155.504 327.171C162.906 320.76 170.26 314.319 176.609 306.887C189.662 291.573 202.034 275.687 213.677 259.289C222.256 247.212 230.431 235.088 239.582 223.444C240.929 221.74 242.307 220.006 244.119 218.798C250.111 214.835 258.008 219.696 262.034 224.326C266.571 229.544 269.017 236.682 268.816 243.573C268.398 259.088 258.937 271.103 250.932 283.398C242.524 296.296 233.079 308.42 222.798 319.893C217.626 325.669 156.666 383.377 156.263 382.789V382.774Z" fill="#1B4001"/>
<path d="M446.51 407.285C446.804 407.502 447.129 407.765 447.222 408.121C447.346 408.601 447.021 409.081 446.726 409.483C440.425 417.767 437.095 421.096 430.793 429.38C420.667 421.267 407.707 417.938 397.844 409.499C397.333 409.065 396.791 408.585 396.605 407.935C396.404 407.3 396.589 406.603 396.775 405.969C397.906 402.036 399.268 398.165 400.894 394.402C402.473 390.717 404.533 386.861 408.156 385.143C414.737 381.999 419.397 386.443 423.919 390.345C430.995 396.446 439.031 401.695 446.541 407.285H446.51Z" fill="#E09C7C"/>
<path d="M425.111 459.961C423.81 459.961 422.525 459.791 421.395 459.187C419.893 458.366 418.809 456.57 419.305 454.929C419.97 452.777 422.463 452.529 423.609 450.857C424.972 448.875 424.492 446.599 424.507 444.199C424.523 438.051 424.678 431.889 424.941 425.742L437.978 404.653C438.691 403.878 439.449 403.151 440.27 402.516C444.094 404.436 447.919 406.356 451.759 408.276C452.533 408.663 453.369 409.127 453.633 409.933C453.803 410.444 453.694 410.985 453.571 411.496C453.106 413.525 452.549 415.522 451.883 417.489C450.474 421.638 448.631 425.633 447.362 429.829C445.891 434.722 445.24 439.817 443.8 444.725C442.84 447.992 441.648 453.458 439.232 455.889C436.461 458.661 430.097 459.621 426.396 459.899C425.963 459.93 425.545 459.946 425.111 459.961Z" fill="#010101"/>
<path d="M110.678 416.869C111.917 416.235 113.156 415.615 114.41 414.996C117.058 413.68 119.69 412.333 122.4 411.14C125.032 409.995 127.68 408.911 130.389 407.904C130.746 407.78 131.102 407.672 131.473 407.548C131.318 406.789 131.179 406.031 131.071 405.256C131.009 404.885 130.962 404.513 130.931 404.126C130.807 404.203 130.684 404.281 130.544 404.358C128.593 405.52 126.565 406.557 124.583 407.672C122.601 408.787 120.573 409.809 118.56 410.877C117.631 411.373 116.686 411.884 115.757 412.395C114.936 412.844 113.837 413.277 113.187 413.788C113.001 413.958 112.815 414.098 112.614 414.206C111.05 414.934 109.006 414.237 108.619 412.395C108.619 412.333 108.588 412.255 108.572 412.193C108.278 410.8 108.944 409.747 110.028 408.973C111.793 407.718 113.992 406.882 115.943 405.938C118.064 404.9 120.185 403.878 122.369 402.996C126.162 401.463 129.832 400.162 132.526 397.205C132.526 397.112 132.557 397.019 132.557 396.911C132.557 396.88 132.557 396.864 132.557 396.833C131.675 396.725 130.838 396.771 129.94 396.942C127.602 397.375 125.404 398.335 123.096 398.877C122.183 399.094 120.867 398.645 120.48 397.7C120.418 397.545 120.371 397.391 120.325 397.251C119.922 396.957 119.922 396.338 120.139 395.827C120.185 395.238 120.387 394.665 120.82 394.077C121.61 393.009 122.818 392.668 124.056 392.405C126.1 391.956 128.129 391.507 130.173 391.058C139.355 388.069 148.986 386.49 158.648 386.428C163.959 386.397 168.573 384.229 171.84 388.41C174.147 391.367 174.952 394.325 172.676 397.731C171.221 399.914 169.022 401.478 166.932 403.073C162.611 406.371 158.926 411.28 154.312 413.943C153.445 414.64 152.562 415.336 151.68 416.002C148.769 418.186 145.796 420.245 142.684 422.118C139.618 423.977 136.475 425.664 133.146 427.058C131.504 427.739 129.847 428.374 128.16 428.947C126.426 429.535 124.382 430.418 122.539 430.325C120.015 430.186 119.349 426.888 121.455 425.649C122.926 424.782 124.893 424.565 126.534 424.038C128.098 423.543 129.631 422.97 131.148 422.351C134.028 421.158 136.862 419.811 139.633 418.387C138.735 418.062 137.868 417.597 137.078 417.04C136.753 417.256 136.444 417.473 136.103 417.659C133.92 418.975 131.551 420.028 129.228 421.081C126.906 422.118 124.583 423.14 122.229 424.116C121.084 424.596 119.953 425.06 118.807 425.525C117.228 426.175 115.865 426.872 114.24 425.897C112.954 425.122 112.691 423.404 113.403 422.165C113.775 421.53 114.472 421.004 115.215 420.895C115.385 420.88 115.556 420.864 115.726 420.864C115.742 420.864 115.757 420.864 115.773 420.849C116.067 420.74 116.345 420.616 116.64 420.508C117.213 420.276 117.785 420.044 118.358 419.811C119.365 419.409 120.356 418.991 121.362 418.588C123.437 417.736 125.527 416.916 127.602 416.064C129.677 415.213 131.767 414.423 133.889 413.695C133.347 412.844 132.913 411.945 132.542 411.016C130.312 412.255 128.082 413.478 125.822 414.655C123.515 415.863 121.176 417.009 118.838 418.186C116.702 419.269 114.456 420.276 112.382 421.499C112.196 421.716 111.979 421.902 111.747 422.041C111.158 422.428 110.338 422.49 109.687 422.242C108.696 421.855 107.969 420.957 108.015 419.858C108.077 418.139 109.316 417.489 110.694 416.792L110.678 416.869Z" fill="#E09C7C"/>
<path d="M309.492 435.605C307.015 435.698 304.537 435.791 302.06 435.837C290.37 436.069 278.741 434.691 267.206 432.957C261.415 432.09 255.624 431.115 249.848 430.201C247.107 429.767 244.351 429.334 241.595 428.947C238.018 428.436 236.547 429.241 236.253 425.896C235.711 419.842 239.211 413.014 241.053 407.393C243.345 400.394 245.466 383.857 247.417 376.75C256.522 343.444 258.782 308.311 279.655 279.418C283.665 273.875 290.648 271.676 297.461 270.948C299.877 270.701 302.416 270.592 304.646 271.583C306.845 272.559 308.47 274.51 309.802 276.523C323.738 297.782 311.66 324.275 310.127 347.099C309.709 353.416 311.861 435.496 309.523 435.589L309.492 435.605Z" fill="#DD7596"/>
<path d="M247.881 294.035C239.458 302.273 230.834 310.309 221.714 317.756C200.439 335.129 170.988 360.616 147.267 374.459C153.631 389.416 162.906 398.211 170.818 410.025C188.888 400.332 215.628 379.754 235.355 366.051C255.159 352.301 274.529 337.034 290.478 318.964C300.713 307.367 309.74 293.787 311.505 278.427C312.976 265.622 310.421 242.752 292.119 249.503C283.665 252.615 276.868 263.996 270.906 270.407C263.412 278.474 255.732 286.355 247.866 294.051L247.881 294.035Z" fill="#1B4001"/>
<path d="M312.589 287.826C312.868 286.68 313.673 285.968 314.432 285.116C315.345 284.094 316.243 283.057 317.095 281.989C319.464 279.031 320.919 275.687 323.134 272.605C325.332 269.539 327.299 266.071 328.801 262.788C329.033 262.277 329.854 262.494 329.652 263.067C328.801 265.498 327.825 267.867 326.726 270.174C326.757 270.329 326.788 270.484 326.788 270.623C326.896 272.017 326.246 273.364 326.494 274.788C326.71 275.965 327.175 277.003 326.865 278.226C326.571 279.341 325.766 280.223 325.147 281.168C323.83 283.196 323.227 285.627 321.57 287.439C320.083 289.08 317.699 290.102 315.531 289.251C314.896 289.003 314.571 288.414 314.695 287.795C314.339 288.136 313.967 288.43 313.503 288.631C312.961 288.863 312.419 288.43 312.558 287.857L312.589 287.826Z" fill="#010101"/>
<path d="M431.49 351.697C433.333 351.326 435.129 350.799 436.879 350.071C443.908 347.145 451.124 338.706 453.586 331.522C454.685 328.332 454.995 324.925 455.165 321.55C455.49 315.186 451.852 297.318 447.965 292.038C444.079 286.773 440.905 294.763 434.835 292.27C407.939 281.245 377.978 281.152 348.914 281.431C334.344 281.57 319.309 281.849 305.993 287.764C292.677 293.679 281.435 306.778 282.349 321.318C283.185 334.773 293.699 345.488 304.382 353.726C311.83 359.47 400.244 427.305 399.64 428.637C409.07 416.08 432.187 389.292 440.997 376.549C442.004 375.093 391.433 348.817 381.369 342.98C393.632 349.019 407.242 352.286 420.915 352.487C424.445 352.533 428.022 352.379 431.475 351.682L431.49 351.697Z" fill="#DD7596"/>
<path d="M225.956 449.324C226.591 448.797 227.396 448.487 228.186 448.209C238.467 444.446 248.888 441.055 259.417 438.051L282.07 443.13C282.968 443.517 283.851 443.966 284.671 444.493C284.129 448.364 283.588 452.235 283.046 456.106C282.937 456.88 282.782 457.747 282.147 458.211C281.745 458.506 281.234 458.568 280.738 458.614C278.803 458.815 276.852 458.908 274.917 458.924C270.813 458.924 266.71 458.506 262.607 458.645C257.822 458.815 253.1 459.744 248.331 459.946C244.026 460.116 239.706 459.698 235.417 459.28C232.552 459.001 229.672 458.707 226.854 458.134C224.903 457.731 224.532 454.929 224.454 453.303C224.392 451.847 224.826 450.315 225.972 449.37L225.956 449.324Z" fill="#010101"/>
<path d="M228.836 175.923C235.247 172.006 243.995 171.015 250.824 173.972C255.453 175.97 270.117 199.134 282.024 215.036C273.089 220.331 264.233 225.89 254.88 230.334C252.341 224.76 249.213 218.272 247.092 214.989C246.891 214.664 246.674 214.293 246.488 214.029C245.884 213.193 245.389 212.806 245.079 212.837C240.821 213.395 236.3 213.937 232.382 212.156C229.719 210.948 227.613 208.78 225.894 206.427C222.937 202.339 216.619 190.138 215.923 185.136C214.901 177.781 223.138 179.392 228.821 175.923H228.836Z" fill="#E09C7C"/>
<path d="M215.783 164.744C213.848 165.41 211.99 166.261 210.255 167.407C207.855 169.002 206.431 171.464 206.353 174.375C206.292 176.93 206.849 179.485 207.995 181.761C208.707 183.185 209.713 184.563 211.153 185.245C213.476 186.313 216.17 185.307 218.508 184.285C220.041 186.437 222.952 187.335 225.29 185.771C225.879 185.369 228.697 182.225 228.557 181.622C228.821 182.767 229.347 183.898 230.276 184.625C231.948 185.957 235.185 185.353 236.052 183.309C235.99 185.059 235.943 186.84 236.516 188.496C237.259 190.649 239.567 192.662 241.951 192.073C243.499 191.686 244.754 190.602 246.101 189.72C247.711 188.667 250.281 188.016 252.062 189.054C253.781 190.06 253.874 192.29 254.044 194.024C254.555 199.072 255.515 204.058 256.599 209.013C257.296 212.156 257.683 215.562 259.494 218.319C261.554 221.462 265.208 222.53 268.831 222.453C271.649 222.391 274.405 221.648 277.038 220.641C281.033 219.139 284.873 217.018 287.768 213.89C290.664 210.762 292.537 206.52 292.166 202.262C291.701 196.78 287.567 191.315 283.03 188.404C279.376 186.065 275.071 184.982 270.984 183.495C266.199 181.761 260.145 174.36 257.11 170.272C254.292 166.494 251.799 162.685 246.999 161.322C243.019 160.192 238.792 161.105 234.705 161.678C228.387 162.561 221.698 162.7 215.768 164.729L215.783 164.744Z" fill="#010101"/>
<path d="M248.95 218.303C249.089 218.582 249.244 218.845 249.383 219.124C249.136 218.675 250.111 216.801 250.282 216.306C250.576 215.438 250.498 214.509 251.149 213.766C251.443 213.441 251.814 213.193 252.14 212.899C252.821 212.28 253.239 211.444 253.611 210.592C253.734 210.313 253.858 210.004 253.874 209.694C253.905 209.09 253.502 208.502 252.929 208.316C251.876 207.975 251.365 208.997 250.638 209.493C249.724 210.112 248.547 210.546 247.727 211.258C246.968 211.924 246.38 212.775 245.265 212.837C245.636 212.992 246.271 213.611 246.689 214.277C247.448 215.5 248.315 217.033 248.965 218.303H248.95Z" fill="#010101"/>
<path d="M239.489 192.027C238.049 189.751 241.92 183.402 247.107 183.789C252.217 184.161 255.701 189.286 254.23 193.993C253.657 195.82 252.295 197.431 250.514 198.096" fill="#E09C7C"/>
<path d="M245.11 188.156C244.011 188.868 243.237 190.091 243.082 191.392C242.911 192.693 243.36 194.071 244.258 195.031" stroke="#272726" stroke-linecap="round" stroke-linejoin="round"/>
<path d="M235.696 202.602C235.185 205.25 232.614 207.495 228.418 207.511" stroke="#010101" stroke-linecap="round" stroke-linejoin="round"/>
<path d="M286.669 336.678C288.465 337.886 289.843 339.883 291.345 341.431C292.986 343.119 294.674 344.776 296.393 346.371C298.112 347.966 299.861 349.514 301.673 351C303.438 352.456 305.374 353.757 307.015 355.351C307.65 355.955 306.783 356.853 306.086 356.466C304.042 355.367 302.199 353.741 300.419 352.286C298.638 350.83 296.888 349.328 295.185 347.764C293.497 346.216 291.856 344.621 290.246 342.98C289.41 342.113 288.573 341.23 287.753 340.348C286.979 339.496 286.158 338.675 285.647 337.638C285.337 337.019 286.05 336.275 286.669 336.693V336.678Z" fill="#010101"/>
<path d="M330.999 311.996C330.891 311.764 330.891 311.501 331.123 311.315C333.694 309.302 336.651 307.305 340.073 307.924C343.278 308.497 344.517 310.835 345.399 313.684C345.895 315.279 346.483 316.611 348.326 316.827C349.967 317.013 351.562 316.75 353.095 317.462C354.458 318.097 355.495 319.196 356.3 320.451C356.827 321.256 357.229 322.138 357.616 323.021C357.725 323.284 358.205 324.678 358.53 325.282C358.762 325.313 358.994 325.436 359.149 325.607C359.505 326.025 359.614 326.412 359.459 326.954C359.428 327.062 359.366 327.171 359.289 327.279C367.573 332.249 375.655 337.607 383.304 343.491C383.707 343.8 383.304 344.482 382.871 344.172C374.525 338.397 366.071 332.791 357.338 327.62C353.002 325.049 348.636 322.572 344.161 320.265C341.916 319.119 339.67 317.989 337.394 316.889C336.171 316.301 334.948 315.728 333.725 315.155C332.625 314.644 331.34 314.242 330.396 313.452C329.714 312.879 330.132 311.919 330.984 312.012L330.999 311.996Z" fill="#010101"/>
<path d="M259.943 280.827C261.709 278.118 263.799 275.609 265.657 272.946C267.515 270.267 269.265 267.542 270.906 264.739C272.516 261.999 274.003 259.196 275.381 256.347C276.821 253.359 277.998 250.231 279.515 247.289C279.856 246.623 280.847 247.15 280.677 247.831C279.84 250.959 278.4 253.916 276.991 256.812C275.551 259.816 273.972 262.742 272.284 265.622C270.627 268.425 268.862 271.15 266.973 273.798C265.053 276.461 263.102 279.217 260.718 281.478C260.3 281.88 259.634 281.323 259.943 280.827Z" fill="#010101"/>
<path d="M252.744 240.104C253.332 245.818 253.626 251.547 254.447 257.245C255.267 262.943 256.692 268.533 257.466 274.231C257.513 274.572 256.986 274.85 256.831 274.463C254.725 269.121 253.765 263.268 252.883 257.617C252 251.919 251.211 246.035 251.319 240.259C251.319 239.47 252.651 239.299 252.744 240.12V240.104Z" fill="#010101"/>
<path d="M251.071 227.857C253.285 230.38 257.373 227.624 259.68 226.525C262.622 225.116 265.549 223.645 268.444 222.128C271.262 220.641 274.065 219.124 276.821 217.56C279.469 216.058 282.225 214.107 285.182 213.286C285.616 213.162 285.817 213.704 285.554 213.998C283.278 216.507 279.763 218.164 276.852 219.82C273.631 221.648 270.38 223.413 267.097 225.1C263.892 226.742 260.671 228.383 257.389 229.839C254.834 230.984 251.66 231.619 249.569 229.235C248.702 228.259 250.189 226.866 251.056 227.857H251.071Z" fill="#010101"/>
<path d="M149.001 372.57C172.784 357.426 195.484 340.673 216.604 321.984C222.503 316.765 228.186 311.3 233.962 305.958C234.302 305.632 234.782 306.159 234.457 306.484C224.656 316.58 213.879 325.87 203.071 334.866C192.31 343.816 181.146 352.286 169.672 360.291C163.076 364.89 156.387 369.349 149.543 373.576C148.908 373.963 148.382 372.957 149.001 372.554V372.57Z" fill="#010101"/>
<path d="M386.277 281.059C392.873 281.137 399.423 281.725 405.942 282.747C409.038 283.227 412.089 283.878 415.17 284.466C418.081 285.023 421.426 285.023 423.253 282.252C423.748 281.493 425.033 282.035 424.724 282.933C423.857 285.426 421.426 286.463 418.933 286.432C415.433 286.386 411.98 285.271 408.558 284.652C401.188 283.305 393.709 282.546 386.231 282.159C385.518 282.128 385.565 281.044 386.277 281.059Z" fill="#010101"/>
<path d="M419.274 277.297C419.274 277.297 419.335 277.405 419.274 277.405C419.196 277.405 419.212 277.297 419.274 277.297Z" fill="#010101"/>
</svg>
