<svg width="27" height="28" viewBox="0 0 27 28" fill="none" xmlns="http://www.w3.org/2000/svg">
<path d="M22.1138 15.502H4.55604C2.88916 15.502 2.22241 16.2132 2.22241 17.98V22.4695C2.22241 24.2364 2.88916 24.9476 4.55604 24.9476H22.1138C23.7807 24.9476 24.4474 24.2364 24.4474 22.4695V17.98C24.4474 16.2132 23.7807 15.502 22.1138 15.502Z" fill="#C59CA0"/>
<path d="M22.1138 2.72241H4.55604C2.88916 2.72241 2.22241 3.43361 2.22241 5.2005V9.68995C2.22241 11.4568 2.88916 12.168 4.55604 12.168H22.1138C23.7807 12.168 24.4474 11.4568 24.4474 9.68995V5.2005C24.4474 3.43361 23.7807 2.72241 22.1138 2.72241Z" fill="#DD7596"/>
</svg>
