<svg width="24" height="24" viewBox="0 0 24 24" fill="none" xmlns="http://www.w3.org/2000/svg">
<path d="M13.3027 13.6954C13.3027 14.2395 12.8601 14.6821 12.3159 14.6821C12.2055 14.6821 12.0992 14.664 12 14.63C11.6107 14.4983 11.3295 14.1291 11.3295 13.6954C11.3295 13.262 11.6107 12.8928 12 12.7611C12.0992 12.7271 12.2055 12.709 12.3159 12.709C12.8601 12.709 13.3027 13.1516 13.3027 13.6954Z" fill="#010101"/>
<path d="M20.6701 12.8624C20.0185 12.158 19.1735 11.6814 18.2477 11.4879C18.2342 8.8265 16.0649 6.66566 13.4004 6.66566C11.8742 6.66284 10.4086 7.40401 9.4997 8.63533C8.99964 8.44203 8.46818 8.34278 7.93207 8.34258C5.54297 8.34258 3.59917 10.2864 3.59917 12.6755C3.59917 13.1613 3.68182 13.6456 3.84056 14.1025C2.78736 14.7127 2.11304 15.8509 2.11304 17.0957C2.11304 19.0016 3.66367 20.5522 5.56962 20.5522H17.3066C19.832 20.5522 21.887 18.4972 21.887 15.9718C21.887 14.8151 21.4548 13.7109 20.6701 12.8624ZM9.39812 15.177C9.34096 15.2453 9.2784 15.3098 9.21274 15.3685C8.87635 15.6678 8.44611 15.8262 7.96799 15.8262C6.78502 15.8262 5.82259 14.8637 5.82259 13.6808C5.82259 12.4978 6.78502 11.5354 7.96799 11.5354C8.39784 11.5354 8.81263 11.6621 9.16794 11.9023C9.43288 12.0811 9.5024 12.4414 9.32358 12.7064C9.14438 12.9717 8.78405 13.0412 8.51911 12.862C8.35629 12.7522 8.16435 12.6937 7.96799 12.694C7.42382 12.694 6.98122 13.1366 6.98122 13.6808C6.98122 14.225 7.42382 14.6675 7.96799 14.6675C8.20037 14.6673 8.37559 14.5921 8.51061 14.4323C8.71607 14.1871 9.08182 14.155 9.32667 14.3609C9.57192 14.5664 9.60397 14.9317 9.39812 15.177ZM12.3159 15.8409C11.1567 15.8486 10.165 14.883 10.1709 13.6955C10.165 12.5079 11.1567 11.5428 12.3159 11.5504C13.4989 11.5504 14.4613 12.5125 14.4613 13.6955C14.4613 14.8784 13.4989 15.8409 12.3159 15.8409ZM17.4124 18.1257C16.9574 18.1311 16.6249 18.1338 16.3796 18.1338C15.7463 18.1338 15.6941 18.1164 15.6173 18.0909C15.4334 18.0295 15.2898 17.8839 15.2338 17.7008C15.1391 17.3934 15.2886 17.1976 15.496 16.9261C15.6547 16.7183 15.9506 16.331 16.4468 15.6223C16.5979 15.406 16.6604 15.2561 16.6859 15.1634C16.7098 15.0367 16.5922 14.9213 16.4658 14.9224C16.358 14.9224 16.2646 14.9989 16.2437 15.1044C16.1823 15.4183 15.8776 15.623 15.5636 15.5612C15.2496 15.4994 15.0453 15.1951 15.1071 14.8811C15.2341 14.2338 15.8057 13.7638 16.4658 13.7638C17.2941 13.7566 17.9718 14.5225 17.8306 15.3442C17.7715 15.6598 17.6298 15.9469 17.3958 16.2865C17.2057 16.558 17.0439 16.7844 16.9076 16.9721C17.0694 16.9705 17.2366 16.969 17.3977 16.967C17.7186 16.9647 17.9801 17.2189 17.9844 17.539C17.9882 17.8588 17.7322 18.1214 17.4124 18.1257Z" fill="#010101"/>
<path d="M7.72 6.92365C8.67984 6.92365 9.45795 6.14554 9.45795 5.1857C9.45795 4.22586 8.67984 3.44775 7.72 3.44775C6.76016 3.44775 5.98206 4.22586 5.98206 5.1857C5.98206 6.14554 6.76016 6.92365 7.72 6.92365Z" fill="#010101"/>
<path d="M20.149 9.62714C21.1089 9.62714 21.887 8.84903 21.887 7.88919C21.887 6.92935 21.1089 6.15125 20.149 6.15125C19.1892 6.15125 18.4111 6.92935 18.4111 7.88919C18.4111 8.84903 19.1892 9.62714 20.149 9.62714Z" fill="#010101"/>
<path d="M4.08267 7.98346C4.40262 7.98346 4.66199 7.72409 4.66199 7.40414C4.66199 7.0842 4.40262 6.82483 4.08267 6.82483C3.76273 6.82483 3.50336 7.0842 3.50336 7.40414C3.50336 7.72409 3.76273 7.98346 4.08267 7.98346Z" fill="#010101"/>
<path d="M14.8579 5.164C15.1779 5.164 15.4373 4.90463 15.4373 4.58469C15.4373 4.26474 15.1779 4.00537 14.8579 4.00537C14.538 4.00537 14.2786 4.26474 14.2786 4.58469C14.2786 4.90463 14.538 5.164 14.8579 5.164Z" fill="#010101"/>
<path d="M21.3076 4.7392C21.6276 4.7392 21.887 4.47983 21.887 4.15988C21.887 3.83993 21.6276 3.58057 21.3076 3.58057C20.9877 3.58057 20.7283 3.83993 20.7283 4.15988C20.7283 4.47983 20.9877 4.7392 21.3076 4.7392Z" fill="#010101"/>
</svg>
