<svg width="24" height="24" viewBox="0 0 24 24" fill="none" xmlns="http://www.w3.org/2000/svg">
<path d="M21.4234 20.7177L20.9007 15.488C20.8106 14.5856 20.4375 13.7347 19.8347 13.057C19.2319 12.3793 18.4303 11.9096 17.5445 11.7148L19.2264 13.677L18.6406 14.1791L17.0048 12.2706V14.6995H16.2334V12.2706L14.5976 14.179L14.0118 13.677L15.6933 11.7148C14.8526 11.9004 14.0868 12.3336 13.4947 12.9585L12.8037 15.3782C13.5354 15.6565 14.1806 16.1233 14.6739 16.7312C15.1672 17.3391 15.4911 18.0665 15.6129 18.8399L15.8767 20.5102C15.929 20.8406 15.909 21.1784 15.8181 21.5003C15.7272 21.8222 15.5675 22.1205 15.3501 22.3747C15.3386 22.3882 15.3263 22.4009 15.3145 22.4141H19.8882C20.1038 22.4142 20.317 22.3691 20.514 22.2816C20.7111 22.1942 20.8876 22.0665 21.0323 21.9067C21.177 21.7468 21.2865 21.5584 21.3539 21.3536C21.4212 21.1489 21.4449 20.9322 21.4234 20.7177Z" fill="#010101"/>
<path d="M6.56247 20.5117L6.82626 18.8413C6.94799 18.0679 7.2719 17.3405 7.76521 16.7326C8.25851 16.1247 8.9037 15.658 9.63542 15.3796L8.92065 12.8783C8.90423 12.8209 8.90136 12.7604 8.91228 12.7017C8.92319 12.643 8.94758 12.5876 8.98354 12.54C9.01949 12.4923 9.06603 12.4536 9.11947 12.427C9.17292 12.4003 9.23182 12.3865 9.29154 12.3865H12.9778C13.5471 11.7997 14.2496 11.359 15.0257 11.1018L14.3209 8.63522C14.3045 8.57781 14.3016 8.51737 14.3125 8.45866C14.3235 8.39995 14.3479 8.34457 14.3838 8.29689C14.4198 8.24921 14.4663 8.21054 14.5197 8.1839C14.5732 8.15727 14.6321 8.14341 14.6918 8.14341H15.3331C14.8127 7.42294 14.1504 6.81654 13.3869 6.36149C12.6235 5.90645 11.775 5.61238 10.8937 5.49737L13.0675 8.29235L12.4586 8.76594L10.4487 6.18176V9.68634H9.67727V6.18176L7.66736 8.76618L7.05838 8.29259L9.23324 5.49631C7.78684 5.68079 6.44487 6.34751 5.42413 7.38876C4.40339 8.43002 3.76351 9.78499 3.60785 11.2348L2.57837 20.7059C2.55496 20.9213 2.57718 21.1392 2.64358 21.3455C2.70999 21.5518 2.8191 21.7417 2.9638 21.903C3.10851 22.0643 3.28556 22.1933 3.48343 22.2816C3.6813 22.3699 3.89556 22.4156 4.11224 22.4156H7.12458C7.11272 22.4023 7.10047 22.3896 7.08895 22.3761C6.87153 22.1219 6.71186 21.8236 6.62096 21.5017C6.53006 21.1798 6.51011 20.842 6.56247 20.5117ZM10.063 4.67181C10.5379 4.67192 11.0116 4.71884 11.4773 4.81188L12.4103 1.58594H7.64079L8.51674 4.83652C9.02484 4.72681 9.54319 4.67159 10.063 4.67181Z" fill="#010101"/>
<path d="M15.775 10.9144C16.3347 10.8187 16.9067 10.8187 17.4664 10.9144L18.038 8.91406H15.2034L15.775 10.9144ZM14.8525 18.9608C14.738 18.2347 14.4083 17.5595 13.9062 17.0226C13.4041 16.4857 12.7525 16.1117 12.0356 15.9489L13.4628 17.9473L12.835 18.3957L11.6062 16.6752V18.5574H10.8347V16.6752L9.60567 18.3959L8.97789 17.9475L10.4051 15.9491C9.68826 16.1119 9.03669 16.4859 8.53455 17.0227C8.03242 17.5596 7.70279 18.2347 7.58824 18.9608L7.32454 20.6312C7.28977 20.8515 7.30315 21.0766 7.36376 21.2912C7.42438 21.5058 7.53078 21.7047 7.67565 21.8742C7.82052 22.0437 8.0004 22.1798 8.20292 22.2731C8.40544 22.3665 8.62578 22.4148 8.84877 22.4147H13.5921C13.8151 22.4148 14.0355 22.3665 14.238 22.2731C14.4405 22.1798 14.6204 22.0437 14.7653 21.8742C14.9101 21.7047 15.0165 21.5058 15.0771 21.2912C15.1378 21.0766 15.1511 20.8515 15.1164 20.6312L14.8525 18.9608ZM11.2204 15.0858C11.5034 15.0861 11.7856 15.1134 12.0634 15.1674L12.6377 13.1571H9.80317L10.3775 15.1674C10.6553 15.1134 10.9375 15.0861 11.2204 15.0858Z" fill="#010101"/>
</svg>
