<svg width="17" height="17" viewBox="0 0 17 17" fill="none" xmlns="http://www.w3.org/2000/svg">
<path d="M4.96659 12.3112H3.2666C2.31327 12.3112 1.83325 11.8312 1.83325 10.8778V3.07788C1.83325 2.12455 2.31327 1.64453 3.2666 1.64453H6.13326C7.08659 1.64453 7.56657 2.12455 7.56657 3.07788V4.3112" stroke="#FCF2E3" stroke-miterlimit="10" stroke-linecap="round" stroke-linejoin="round"/>
<path d="M12.0801 5.92448V13.3645C12.0801 14.4378 11.5468 14.9778 10.4735 14.9778H6.58012C5.50679 14.9778 4.9668 14.4378 4.9668 13.3645V5.92448C4.9668 4.85115 5.50679 4.31116 6.58012 4.31116H10.4735C11.5468 4.31116 12.0801 4.85115 12.0801 5.92448Z" stroke="#FCF2E3" stroke-miterlimit="10" stroke-linecap="round" stroke-linejoin="round"/>
<path d="M9.43335 4.3112V3.07788C9.43335 2.12455 9.91333 1.64453 10.8667 1.64453H13.7333C14.6867 1.64453 15.1667 2.12455 15.1667 3.07788V10.8778C15.1667 11.8312 14.6867 12.3112 13.7333 12.3112H12.08" stroke="#FCF2E3" stroke-miterlimit="10" stroke-linecap="round" stroke-linejoin="round"/>
<path d="M7.16675 7.64453H9.83341" stroke="#FCF2E3" stroke-miterlimit="10" stroke-linecap="round" stroke-linejoin="round"/>
<path d="M7.16675 9.64453H9.83341" stroke="#FCF2E3" stroke-miterlimit="10" stroke-linecap="round" stroke-linejoin="round"/>
<path d="M8.5 14.9778V12.9778" stroke="#FCF2E3" stroke-miterlimit="10" stroke-linecap="round" stroke-linejoin="round"/>
</svg>
