<svg width="17" height="17" viewBox="0 0 17 17" fill="none" xmlns="http://www.w3.org/2000/svg">
<path d="M12.9466 12.7579L14.4266 12.0179V10.1645M9.97991 6.8312L8.49991 7.5712L9.97991 6.8312ZM8.49991 7.5712L7.01991 6.8312L8.49991 7.5712ZM8.49991 7.5712V9.42453V7.5712ZM14.4266 4.60453L12.9466 5.34453L14.4266 4.60453ZM14.4266 4.60453L12.9466 3.86453L14.4266 4.60453ZM14.4266 4.60453V6.45787V4.60453ZM9.97991 2.38453L8.49991 1.64453L7.01991 2.38453H9.97991ZM2.57324 4.60453L4.05324 3.86453L2.57324 4.60453ZM2.57324 4.60453L4.05324 5.34453L2.57324 4.60453ZM2.57324 4.60453V6.45787V4.60453ZM8.49991 14.9779L7.01991 14.2379L8.49991 14.9779ZM8.49991 14.9779L9.97991 14.2379L8.49991 14.9779ZM8.49991 14.9779V13.1245V14.9779ZM4.05324 12.7579L2.57324 12.0179V10.1645L4.05324 12.7579Z" stroke="#FCF2E3" stroke-linecap="round" stroke-linejoin="round"/>
</svg>
