<svg width="17" height="17" viewBox="0 0 17 17" fill="none" xmlns="http://www.w3.org/2000/svg">
<path d="M8.83323 14.9779H3.2199C2.44657 14.9779 1.81323 14.3579 1.81323 13.5979V3.70452C1.81323 1.95785 3.11323 1.16452 4.70657 1.94452L7.66657 3.39785C8.30657 3.71119 8.83323 4.54452 8.83323 5.25119V14.9779Z" stroke="#FCF2E3" stroke-linecap="round" stroke-linejoin="round"/>
<path d="M15.1466 10.3513V12.8713C15.1466 14.3113 14.4799 14.9779 13.0399 14.9779H8.83325V7.25793L9.14659 7.3246L12.1466 7.99793L13.4999 8.29793C14.3799 8.49127 15.0999 8.9446 15.1399 10.2246C15.1466 10.2646 15.1466 10.3046 15.1466 10.3513Z" stroke="#FCF2E3" stroke-linecap="round" stroke-linejoin="round"/>
<path d="M4.16675 6.31128H6.48008" stroke="#FCF2E3" stroke-linecap="round" stroke-linejoin="round"/>
<path d="M4.16675 8.97791H6.48008" stroke="#FCF2E3" stroke-linecap="round" stroke-linejoin="round"/>
<path d="M12.1467 7.99792V10.1446C12.1467 10.9713 11.4734 11.6446 10.6467 11.6446C9.82006 11.6446 9.14673 10.9713 9.14673 10.1446V7.32458L12.1467 7.99792Z" stroke="#FCF2E3" stroke-linecap="round" stroke-linejoin="round"/>
<path d="M15.1401 10.2246C15.1001 11.0113 14.4467 11.6446 13.6467 11.6446C12.8201 11.6446 12.1467 10.9713 12.1467 10.1446V7.99792L13.5001 8.29792C14.3801 8.49126 15.1001 8.94459 15.1401 10.2246Z" stroke="#FCF2E3" stroke-linecap="round" stroke-linejoin="round"/>
</svg>
