<svg width="17" height="17" viewBox="0 0 17 17" fill="none" xmlns="http://www.w3.org/2000/svg">
<path d="M11.8333 12.5979H9.16658L6.19991 14.5712C5.75991 14.8645 5.16659 14.5512 5.16659 14.0179V12.5979C3.16659 12.5979 1.83325 11.2645 1.83325 9.26453V5.26449C1.83325 3.26449 3.16659 1.93115 5.16659 1.93115H11.8333C13.8333 1.93115 15.1666 3.26449 15.1666 5.26449V9.26453C15.1666 11.2645 13.8333 12.5979 11.8333 12.5979Z" stroke="#FCF2E3" stroke-miterlimit="10" stroke-linecap="round" stroke-linejoin="round"/>
<path d="M8.49996 7.88452V7.74455C8.49996 7.29121 8.77998 7.0512 9.05998 6.85787C9.33331 6.6712 9.60661 6.43121 9.60661 5.99121C9.60661 5.37788 9.11329 4.88452 8.49996 4.88452C7.88663 4.88452 7.39331 5.37788 7.39331 5.99121" stroke="#FCF2E3" stroke-linecap="round" stroke-linejoin="round"/>
<path d="M8.49708 9.47786H8.50308" stroke="#FCF2E3" stroke-linecap="round" stroke-linejoin="round"/>
</svg>
