<svg width="17" height="17" viewBox="0 0 17 17" fill="none" xmlns="http://www.w3.org/2000/svg">
<path d="M8.5 10.3112C9.60457 10.3112 10.5 9.41573 10.5 8.31116C10.5 7.20659 9.60457 6.31116 8.5 6.31116C7.39543 6.31116 6.5 7.20659 6.5 8.31116C6.5 9.41573 7.39543 10.3112 8.5 10.3112Z" stroke="#FCF2E3" stroke-miterlimit="10" stroke-linecap="round" stroke-linejoin="round"/>
<path d="M1.83325 8.89782V7.72449C1.83325 7.03116 2.39992 6.45782 3.09992 6.45782C4.30659 6.45782 4.79992 5.60449 4.19325 4.55782C3.84659 3.95782 4.05325 3.17782 4.65992 2.83116L5.81325 2.17116C6.33992 1.85782 7.01992 2.04449 7.33325 2.57116L7.40659 2.69782C8.00659 3.74449 8.99325 3.74449 9.59992 2.69782L9.67325 2.57116C9.98659 2.04449 10.6666 1.85782 11.1933 2.17116L12.3466 2.83116C12.9533 3.17782 13.1599 3.95782 12.8133 4.55782C12.2066 5.60449 12.6999 6.45782 13.9066 6.45782C14.5999 6.45782 15.1733 7.02449 15.1733 7.72449V8.89782C15.1733 9.59116 14.6066 10.1645 13.9066 10.1645C12.6999 10.1645 12.2066 11.0178 12.8133 12.0645C13.1599 12.6712 12.9533 13.4445 12.3466 13.7912L11.1933 14.4512C10.6666 14.7645 9.98659 14.5778 9.67325 14.0512L9.59992 13.9245C8.99992 12.8778 8.01325 12.8778 7.40659 13.9245L7.33325 14.0512C7.01992 14.5778 6.33992 14.7645 5.81325 14.4512L4.65992 13.7912C4.05325 13.4445 3.84659 12.6645 4.19325 12.0645C4.79992 11.0178 4.30659 10.1645 3.09992 10.1645C2.39992 10.1645 1.83325 9.59116 1.83325 8.89782Z" stroke="#FCF2E3" stroke-miterlimit="10" stroke-linecap="round" stroke-linejoin="round"/>
</svg>
