<svg width="17" height="17" viewBox="0 0 17 17" fill="none" xmlns="http://www.w3.org/2000/svg">
<path d="M11.6332 12.9645H5.36656C5.08656 12.9645 4.77322 12.7445 4.67989 12.4779L1.91989 4.75785C1.52656 3.65119 1.98656 3.31119 2.93322 3.99119L5.53322 5.85119C5.96656 6.15119 6.45989 5.99785 6.64656 5.51119L7.81989 2.38452C8.19322 1.38452 8.81322 1.38452 9.18656 2.38452L10.3599 5.51119C10.5466 5.99785 11.0399 6.15119 11.4666 5.85119L13.9066 4.11119C14.9466 3.36452 15.4466 3.74452 15.0199 4.95119L12.3266 12.4912C12.2266 12.7445 11.9132 12.9645 11.6332 12.9645Z" stroke="#FCF2E3" stroke-linecap="round" stroke-linejoin="round"/>
<path d="M4.83325 14.9778H12.1666" stroke="#FCF2E3" stroke-linecap="round" stroke-linejoin="round"/>
<path d="M6.83325 9.64453H10.1666" stroke="#FCF2E3" stroke-linecap="round" stroke-linejoin="round"/>
</svg>
