<svg width="17" height="17" viewBox="0 0 17 17" fill="none" xmlns="http://www.w3.org/2000/svg">
<path d="M6.60671 7.55786C6.54004 7.5512 6.46004 7.5512 6.38671 7.55786C4.80004 7.50453 3.54004 6.20453 3.54004 4.60453C3.54004 2.9712 4.86004 1.64453 6.50004 1.64453C8.13337 1.64453 9.46004 2.9712 9.46004 4.60453C9.45337 6.20453 8.19337 7.50453 6.60671 7.55786Z" stroke="#FCF2E3" stroke-linecap="round" stroke-linejoin="round"/>
<path d="M11.4399 2.97778C12.7333 2.97778 13.7733 4.02445 13.7733 5.31112C13.7733 6.57112 12.7733 7.59778 11.5266 7.64445C11.4733 7.63778 11.4133 7.63778 11.3533 7.64445" stroke="#FCF2E3" stroke-linecap="round" stroke-linejoin="round"/>
<path d="M3.27323 10.0178C1.6599 11.0978 1.6599 12.8578 3.27323 13.9311C5.10657 15.1578 8.11323 15.1578 9.94657 13.9311C11.5599 12.8511 11.5599 11.0911 9.94657 10.0178C8.1199 8.79778 5.11323 8.79778 3.27323 10.0178Z" stroke="#FCF2E3" stroke-linecap="round" stroke-linejoin="round"/>
<path d="M12.7266 13.6445C13.2066 13.5445 13.6599 13.3512 14.0332 13.0645C15.0732 12.2845 15.0732 10.9979 14.0332 10.2179C13.6666 9.93786 13.2199 9.7512 12.7466 9.64453" stroke="#FCF2E3" stroke-linecap="round" stroke-linejoin="round"/>
</svg>
