<svg width="25" height="25" viewBox="0 0 25 25" fill="none" xmlns="http://www.w3.org/2000/svg">
<path d="M11.1941 5.16574L6.76406 2.97574C4.37406 1.80574 2.41406 2.99574 2.41406 5.61574V20.4557C2.41406 21.5957 3.36406 22.5257 4.52406 22.5257H11.9441C12.4941 22.5257 12.9441 22.0757 12.9441 21.5257V7.93574C12.9441 6.88574 12.1541 5.63574 11.1941 5.16574ZM9.41406 14.2757H5.94406C5.53406 14.2757 5.19406 13.9357 5.19406 13.5257C5.19406 13.1157 5.53406 12.7757 5.94406 12.7757H9.41406C9.82406 12.7757 10.1641 13.1157 10.1641 13.5257C10.1641 13.9357 9.83406 14.2757 9.41406 14.2757ZM9.41406 10.2757H5.94406C5.53406 10.2757 5.19406 9.93574 5.19406 9.52574C5.19406 9.11574 5.53406 8.77574 5.94406 8.77574H9.41406C9.82406 8.77574 10.1641 9.11574 10.1641 9.52574C10.1641 9.93574 9.83406 10.2757 9.41406 10.2757Z" fill="#969696"/>
<path d="M22.4414 18.5654V20.0254C22.4414 21.4054 21.3214 22.5254 19.9414 22.5254H15.4114C14.8714 22.5254 14.4414 22.0954 14.4414 21.5554V19.3954C15.5114 19.5254 16.6414 19.2154 17.4514 18.5654C18.1314 19.1154 19.0014 19.4454 19.9514 19.4454C20.8814 19.4454 21.7514 19.1154 22.4414 18.5654Z" fill="#969696"/>
<path d="M22.4414 15.5749V15.5849C22.3614 16.8949 21.2914 17.9449 19.9514 17.9449C18.5614 17.9449 17.4514 16.8149 17.4514 15.4449C17.4514 16.9749 16.0414 18.2049 14.4414 17.8949V12.5249C14.4414 11.8849 15.0314 11.4049 15.6614 11.5449L17.4514 11.9449L17.9314 12.0549L19.9714 12.5149C20.4614 12.6149 20.9114 12.7849 21.3014 13.0349C21.3014 13.0449 21.3114 13.0449 21.3114 13.0449C21.4114 13.1149 21.5114 13.1949 21.6014 13.2849C22.0614 13.7449 22.3614 14.4149 22.4314 15.3949C22.4314 15.4549 22.4414 15.5149 22.4414 15.5749Z" fill="#969696"/>
</svg>
