<svg width="25" height="25" viewBox="0 0 25 25" fill="none" xmlns="http://www.w3.org/2000/svg">
<path d="M11.1941 4.66574L6.76406 2.47574C4.37406 1.30574 2.41406 2.49574 2.41406 5.11574V19.9557C2.41406 21.0957 3.36406 22.0257 4.52406 22.0257H11.9441C12.4941 22.0257 12.9441 21.5757 12.9441 21.0257V7.43574C12.9441 6.38574 12.1541 5.13574 11.1941 4.66574ZM9.41406 13.7757H5.94406C5.53406 13.7757 5.19406 13.4357 5.19406 13.0257C5.19406 12.6157 5.53406 12.2757 5.94406 12.2757H9.41406C9.82406 12.2757 10.1641 12.6157 10.1641 13.0257C10.1641 13.4357 9.83406 13.7757 9.41406 13.7757ZM9.41406 9.77574H5.94406C5.53406 9.77574 5.19406 9.43574 5.19406 9.02574C5.19406 8.61574 5.53406 8.27574 5.94406 8.27574H9.41406C9.82406 8.27574 10.1641 8.61574 10.1641 9.02574C10.1641 9.43574 9.83406 9.77574 9.41406 9.77574Z" fill="#1B4001"/>
<path d="M22.4414 18.0654V19.5254C22.4414 20.9054 21.3214 22.0254 19.9414 22.0254H15.4114C14.8714 22.0254 14.4414 21.5954 14.4414 21.0554V18.8954C15.5114 19.0254 16.6414 18.7154 17.4514 18.0654C18.1314 18.6154 19.0014 18.9454 19.9514 18.9454C20.8814 18.9454 21.7514 18.6154 22.4414 18.0654Z" fill="#1B4001"/>
<path d="M22.4414 15.0749V15.0849C22.3614 16.3949 21.2914 17.4449 19.9514 17.4449C18.5614 17.4449 17.4514 16.3149 17.4514 14.9449C17.4514 16.4749 16.0414 17.7049 14.4414 17.3949V12.0249C14.4414 11.3849 15.0314 10.9049 15.6614 11.0449L17.4514 11.4449L17.9314 11.5549L19.9714 12.0149C20.4614 12.1149 20.9114 12.2849 21.3014 12.5349C21.3014 12.5449 21.3114 12.5449 21.3114 12.5449C21.4114 12.6149 21.5114 12.6949 21.6014 12.7849C22.0614 13.2449 22.3614 13.9149 22.4314 14.8949C22.4314 14.9549 22.4414 15.0149 22.4414 15.0749Z" fill="#1B4001"/>
</svg>
