<svg width="25" height="25" viewBox="0 0 25 25" fill="none" xmlns="http://www.w3.org/2000/svg">
<path d="M12.7812 2.26294C10.1613 2.26294 8.03125 4.39294 8.03125 7.01294C8.03125 9.58294 10.0413 11.6629 12.6613 11.7529C12.7413 11.7429 12.8213 11.7429 12.8813 11.7529C12.9013 11.7529 12.9112 11.7529 12.9312 11.7529C12.9412 11.7529 12.9412 11.7529 12.9513 11.7529C15.5113 11.6629 17.5212 9.58294 17.5312 7.01294C17.5312 4.39294 15.4012 2.26294 12.7812 2.26294Z" fill="#1B4001"/>
<path d="M17.8622 14.4128C15.0722 12.5528 10.5222 12.5528 7.71219 14.4128C6.44219 15.2628 5.74219 16.4128 5.74219 17.6428C5.74219 18.8728 6.44219 20.0128 7.70219 20.8528C9.10219 21.7928 10.9422 22.2628 12.7822 22.2628C14.6222 22.2628 16.4622 21.7928 17.8622 20.8528C19.1222 20.0028 19.8222 18.8628 19.8222 17.6228C19.8122 16.3928 19.1222 15.2528 17.8622 14.4128Z" fill="#1B4001"/>
</svg>
