<svg width="25" height="25" viewBox="0 0 25 25" fill="none" xmlns="http://www.w3.org/2000/svg">
<path d="M12.4414 2.52539C9.82141 2.52539 7.69141 4.65539 7.69141 7.27539C7.69141 9.84539 9.70141 11.9254 12.3214 12.0154C12.4014 12.0054 12.4814 12.0054 12.5414 12.0154C12.5614 12.0154 12.5714 12.0154 12.5914 12.0154C12.6014 12.0154 12.6014 12.0154 12.6114 12.0154C15.1714 11.9254 17.1814 9.84539 17.1914 7.27539C17.1914 4.65539 15.0614 2.52539 12.4414 2.52539Z" fill="#969696"/>
<path d="M17.5223 14.6753C14.7323 12.8153 10.1823 12.8153 7.37234 14.6753C6.10234 15.5253 5.40234 16.6753 5.40234 17.9053C5.40234 19.1353 6.10234 20.2753 7.36234 21.1153C8.76234 22.0553 10.6023 22.5253 12.4423 22.5253C14.2823 22.5253 16.1223 22.0553 17.5223 21.1153C18.7823 20.2653 19.4823 19.1253 19.4823 17.8853C19.4723 16.6553 18.7823 15.5153 17.5223 14.6753Z" fill="#969696"/>
</svg>
