<svg width="25" height="24" viewBox="0 0 25 24" fill="none" xmlns="http://www.w3.org/2000/svg">
<path d="M11.8325 19.5H8.3125C7.6925 19.5 7.1425 19.48 6.6525 19.41C4.0225 19.12 3.3125 17.88 3.3125 14.5V9.5C3.3125 6.12 4.0225 4.88 6.6525 4.59C7.1425 4.52 7.6925 4.5 8.3125 4.5H11.7725" stroke="#010101" stroke-width="1.5" stroke-linecap="round" stroke-linejoin="round"/>
<path d="M15.832 4.5H17.312C17.932 4.5 18.482 4.52 18.972 4.59C21.602 4.88 22.312 6.12 22.312 9.5V14.5C22.312 17.88 21.602 19.12 18.972 19.41C18.482 19.48 17.932 19.5 17.312 19.5H15.832" stroke="#010101" stroke-width="1.5" stroke-linecap="round" stroke-linejoin="round"/>
<path d="M15.8125 2V22" stroke="#010101" stroke-width="1.5" stroke-linecap="round" stroke-linejoin="round"/>
<path d="M11.9086 12H11.9176" stroke="#010101" stroke-width="2" stroke-linecap="round" stroke-linejoin="round"/>
<path d="M7.90857 12H7.91755" stroke="#010101" stroke-width="2" stroke-linecap="round" stroke-linejoin="round"/>
</svg>
